<svg width="24" height="24" viewBox="0 0 24 24" xmlns="http://www.w3.org/2000/svg">
<path d="M19.8187 3.80586C17.8125 1.85586 15.0375 0.787109 12 0.787109C8.98125 0.787109 6.20625 1.85586 4.18125 3.80586C2.0625 5.84961 0.9375 8.68086 0.9375 11.9809V12.0184C0.9375 15.3184 2.0625 18.1496 4.18125 20.1934C6.1875 22.1434 8.9625 23.2121 12 23.2121C15.0188 23.2121 17.7937 22.1434 19.8187 20.1934C21.9375 18.1309 23.0625 15.3184 23.0625 12.0184V11.9809C23.0625 8.68086 21.9375 5.86836 19.8187 3.80586ZM21.1875 12.0184C21.1875 14.7934 20.2687 17.1559 18.5062 18.8434C16.8562 20.4371 14.5312 21.3371 12 21.3371C6.6 21.3371 2.8125 17.5121 2.8125 12.0184V11.9809C2.8125 9.20586 3.73125 6.84336 5.49375 5.15586C7.14375 3.56211 9.46875 2.66211 12 2.66211C14.5312 2.66211 16.8562 3.54336 18.5062 5.15586C20.25 6.84336 21.1875 9.20586 21.1875 11.9809V12.0184Z"/>
<path d="M16.1437 6.52441L11.9999 10.6682L7.85615 6.52441L6.5249 7.85566L10.6687 11.9994L6.5249 16.1432L7.85615 17.4744L11.9999 13.3307L16.1437 17.4744L17.4749 16.1432L13.3312 11.9994L17.4749 7.85566L16.1437 6.52441Z"/>
</svg>
