<svg width="24" height="24" viewBox="0 0 24 24"  xmlns="http://www.w3.org/2000/svg">
<g opacity="0.5">
<path d="M11.0063 3V5.00625H13.0125V3H11.0063ZM11.0063 6.99375V9H13.0125V6.99375H11.0063ZM3 11.0063V13.0125H5.00625V11.0063H3ZM6.99375 11.0063V13.0125H9V11.0063H6.99375ZM11.0063 11.0063V13.0125H13.0125V11.0063H11.0063ZM12.9938 12.9938V15H15V12.9938H12.9938ZM15 12.9938H17.0062V11.0063H15V12.9938ZM17.0062 12.9938V15H19.0125V12.9938H17.0062ZM18.9938 12.9938H21V11.0063H18.9938V12.9938ZM18.9938 15V17.0062H21V15H18.9938ZM18.9938 17.0062H17.0062V19.0125H19.0125V17.0062H18.9938ZM18.9938 18.9938V21H21V18.9938H18.9938ZM17.0062 18.9938H15V21H17.0062V18.9938ZM15 18.9938V17.0062H12.9938V19.0125H15V18.9938ZM12.9938 18.9938H11.0063V21H13.0125V18.9938H12.9938ZM12.9938 17.0062V15H11.0063V17.0062H12.9938ZM15 17.0062H17.0062V15H15V17.0062Z" />
<path d="M8.00664 8.94414H3.99414L3.05664 8.00664V3.99414L3.99414 3.05664H7.98789L8.92539 3.99414V7.98789L8.00664 8.94414ZM4.93164 7.06914H7.05039V4.93164H4.93164V7.06914Z" />
<path d="M8.00664 20.9441H3.99414L3.05664 20.0066V15.9941L3.99414 15.0566H7.98789L8.92539 15.9941V19.9879L8.00664 20.9441ZM4.93164 19.0691H7.05039V16.9316H4.93164V19.0691Z" />
<path d="M20.0066 8.94414H15.9941L15.0566 8.00664V3.99414L15.9941 3.05664H19.9879L20.9254 3.99414V7.98789L20.0066 8.94414ZM16.9316 7.06914H19.0504V4.93164H16.9316V7.06914Z" />
</g>
</svg>
